<?xml version="1.0" encoding="UTF-8"?>
<svg width="898px" height="119px" viewBox="0 0 898 119" version="1.1" xmlns="http://www.w3.org/2000/svg" xmlns:xlink="http://www.w3.org/1999/xlink">
    <!-- Generator: Sketch 64 (93537) - https://sketch.com -->
    <title>Untitled</title>
    <desc>Created with Sketch.</desc>
    <g id="Page-1" stroke="none" stroke-width="1" fill="none" fill-rule="evenodd">
        <rect id="Rectangle" stroke="#979797" fill="#353535" x="0.5" y="0.5" width="897" height="118"></rect>
        <rect id="Rectangle" stroke="#85DAFF" fill="#2A2929" x="0.5" y="0.5" width="897" height="118"></rect>
        <g id="Group" transform="translate(740.000000, 21.000000)">
            <path d="M63.9663462,25 L57,35.1641337 C59.2884615,36.6960486 60.9038462,38.7142857 61.5432692,41 L66.7932692,41 C67.3990385,38.8358663 68.8798077,36.8905775 71,35.3829787 L63.9663462,25 Z" id="Path"></path>
            <path d="M53.0231214,33.1402509 L64.7687861,12.9464082 L76.4836224,33.2713797 C76.9460501,33.1402509 77.4084778,33.0353478 77.8709056,32.9304447 L89,5 L40.5067437,5 L51.6050096,32.8517674 C52.0674374,32.9304447 52.5606936,33.0353478 53.0231214,33.1402509 Z M48.9845857,51 C53.2697495,51 56.7533719,48.036488 56.7533719,44.391106 C56.7533719,43.0535918 56.2909441,41.8209806 55.4894027,40.7719498 C55.2427746,40.4310148 54.9344894,40.1163056 54.6262042,39.8278221 L54.5953757,39.8015964 C54.2870906,39.5131129 53.9171484,39.2508552 53.5472062,39.041049 L53.5163776,39.0148233 C53.4238921,38.9623717 53.300578,38.8836944 53.177264,38.8312429 C53.1464355,38.8312429 53.1464355,38.8050171 53.1156069,38.8050171 C52.9922929,38.7525656 52.8689788,38.6738883 52.7456647,38.6214367 L52.7148362,38.6214367 C52.5915222,38.5689852 52.4373796,38.4903079 52.3140655,38.4378563 L52.283237,38.4378563 C52.1599229,38.3854048 52.0366089,38.3329532 51.9132948,38.3067275 C51.8824663,38.3067275 51.8516378,38.2805017 51.8208092,38.2805017 C51.7283237,38.2542759 51.6050096,38.2018244 51.5125241,38.1755986 C51.4816956,38.1755986 51.4508671,38.1493729 51.38921,38.1493729 C51.265896,38.1231471 51.1425819,38.0706956 51.0192678,38.0444698 L50.9884393,38.0444698 C50.8342967,38.018244 50.7109827,37.9920182 50.5568401,37.9657925 C50.5260116,37.9657925 50.495183,37.9657925 50.433526,37.9395667 C50.3102119,37.9133409 50.2177264,37.9133409 50.0944123,37.8871152 C50.0327553,37.8871152 50.0019268,37.8871152 49.9402697,37.8608894 C49.8477842,37.8608894 49.7244701,37.8346636 49.6319846,37.8346636 L48.4296724,37.8346636 C48.3063584,37.8346636 48.2138728,37.8608894 48.0905588,37.8608894 L47.9672447,37.8608894 C47.8439306,37.8871152 47.7206166,37.8871152 47.5973025,37.9133409 L47.504817,37.9133409 C47.3506744,37.9395667 47.2273603,37.9657925 47.0732177,37.9920182 C43.6820809,38.700114 41.1541426,41.322691 41.1541426,44.4173318 C41.2157996,48.0102623 44.699422,51 48.9845857,51 L48.9845857,51 Z M81.6628131,37.7822121 L81.6011561,37.7822121 C81.477842,37.7822121 81.3853565,37.7559863 81.2620424,37.7559863 L80.8612717,37.7559863 C80.7071291,37.7559863 80.5529865,37.7559863 80.3680154,37.7822121 L80.2138728,37.7822121 C80.0905588,37.7822121 79.9672447,37.8084379 79.8439306,37.8084379 C79.8131021,37.8084379 79.7514451,37.8084379 79.7206166,37.8346636 L79.2581888,37.9133409 L79.2273603,37.9133409 C79.0732177,37.9395667 78.9499037,37.9657925 78.7957611,37.9920182 C78.7649326,37.9920182 78.7032755,38.018244 78.672447,38.018244 C78.5491329,38.0444698 78.4258189,38.0706956 78.3025048,38.1231471 C78.2716763,38.1231471 78.2408478,38.1493729 78.2100193,38.1493729 C78.0558767,38.2018244 77.9017341,38.2542759 77.77842,38.3067275 C77.6242775,38.359179 77.5009634,38.4116306 77.3468208,38.4640821 C77.3159923,38.4640821 77.2851638,38.4903079 77.2543353,38.4903079 C77.1310212,38.5427594 77.0077071,38.5952109 76.8843931,38.6738883 C76.8843931,38.6738883 76.8535645,38.6738883 76.8535645,38.700114 C76.5761079,38.8312429 76.2986513,38.9885975 76.0520231,39.1721779 L76.0211946,39.1984036 C75.6204239,39.4606613 75.2813102,39.7491448 74.9421965,40.063854 C74.6030829,40.3785633 74.3256262,40.7457241 74.0789981,41.1128848 C73.4315992,42.0832383 73.061657,43.2109464 73.061657,44.391106 C73.061657,48.036488 76.5452794,51 80.8304432,51 C85.1156069,51 88.5992293,48.036488 88.5992293,44.391106 C88.5992293,41.1915621 85.8863198,38.4903079 82.3410405,37.8871152 C82.1560694,37.8346636 81.9094412,37.8084379 81.6628131,37.7822121 L81.6628131,37.7822121 Z M16.7687861,51 C21.0539499,51 24.5375723,48.036488 24.5375723,44.391106 C24.5375723,40.7457241 21.0539499,37.7822121 16.7687861,37.7822121 C12.4836224,37.7822121 9,40.7457241 9,44.391106 C9,48.036488 12.4836224,51 16.7687861,51 L16.7687861,51 Z" id="Shape"></path>
            <path d="M80.1811008,56.5957004 C73.7482519,56.5957004 68.3359992,52.926491 66.7896413,48 L61.5938787,48 C60.0475208,52.926491 54.6352681,56.5957004 48.2024192,56.5957004 C47.4601674,56.5957004 46.7488428,56.5443828 46.0684453,56.4674064 C44.2746701,58.7510402 42.1406962,60.8550624 39.6355964,62.8051318 C35.2130128,66.2690707 30.2028132,68.8349515 24.7905605,70.4514563 L23.522547,70.8363384 L22.347315,70.3231623 C15.8526117,67.5520111 12.5124787,61.9327323 13.6877107,56.4930652 C12.9454589,56.39043 12.2341342,56.2364771 11.5537368,56.0312067 C11.4300281,56.2108183 11.3372466,56.4160888 11.213538,56.6213592 C9.23419989,60.0083218 7.16208029,63.4979196 6.41982849,67.2441054 C5.61572238,71.2468793 5.27552364,78.5596394 12.0794984,82.4597781 C15.0485056,84.1532594 18.1721486,85 21.6669175,85 C28.3781108,85 35.6150658,82.0235784 43.2850011,78.8675451 C49.2848698,76.4042996 55.4703014,73.8384189 61.9031503,72.5298197 C64.3463958,72.0423024 66.8205685,71.7343967 69.2019597,71.4521498 C73.562689,70.9389736 77.7069282,70.4257975 81.0779884,68.8092926 C84.6655388,67.0901526 87.1087843,64.2163662 87.7891817,60.9320388 C88.222162,58.9306519 87.9747447,56.9036061 87.1706386,55.0305132 C85.1294461,56.0055479 82.748055,56.5957004 80.1811008,56.5957004 L80.1811008,56.5957004 Z" id="Path"></path>
            <path d="M94.0658678,44.3225246 C94.0658678,38.9027215 89.6492266,34.342791 83.7191909,33.0399537 L97,0 L31.1827812,0 L44.4944758,33.1441807 C38.7497538,34.5512449 34.5184262,39.0330052 34.5184262,44.3485814 C34.5184262,48.2570932 36.8348464,51.7226404 40.3558051,53.8592936 C38.965953,55.5269253 37.3599017,57.0642733 35.5376511,58.5234511 C32.1093492,61.2333526 28.3104201,63.3178923 24.202635,64.6988998 C20.4963627,62.5883034 18.8903114,58.8621888 20.3419347,55.5269253 C25.994,54.0677475 30.1017851,49.612044 30.1017851,44.3746381 C30.1017851,37.9386219 23.893779,32.7272727 16.2959208,32.7272727 C8.66717698,32.7272727 2.45917088,37.9646786 2.45917088,44.4006948 C2.45917088,47.5796178 4.00345101,50.4979734 6.4742992,52.582513 C6.25809998,52.9473075 6.04190077,53.3121019 5.82570155,53.7029531 C3.75636619,57.298784 1.4090604,61.3636364 0.513377928,65.9235669 C-1.27798701,75.0434279 1.65614522,82.3653735 8.72894818,86.5083961 C12.7131909,88.8274464 17.0989464,90 21.8244436,90 C29.9473571,90 38.1938129,86.5605096 46.1622984,83.2252461 C51.8452492,80.8540822 57.7135137,78.3786914 63.4891213,77.1800811 C65.6202279,76.7371164 67.8439913,76.4765489 70.1912971,76.1899247 C74.9476798,75.6166763 79.8584906,75.0173712 84.2751318,72.8546613 C89.4330274,70.3271569 92.9539861,66.1059641 93.973211,61.2594094 C94.745351,57.5332947 93.973211,53.7811233 91.9965324,50.4979734 C93.3246133,48.7000579 94.0658678,46.5894615 94.0658678,44.3225246 Z M88.0431753,44.3225246 C88.0431753,47.9444123 84.5531022,50.8888246 80.2600035,50.8888246 C75.9669047,50.8888246 72.4768317,47.9444123 72.4768317,44.3225246 C72.4768317,43.149971 72.8474589,42.029531 73.4960565,41.0654314 C73.7431414,40.7006369 74.0519974,40.3358425 74.3608534,40.0231616 C74.6697094,39.7104806 75.0403367,39.4238564 75.4418495,39.1632889 L75.4727351,39.1372322 C75.7198199,38.9808917 75.9977903,38.8245512 76.2757608,38.6682108 C76.2757608,38.6682108 76.3066464,38.6682108 76.3066464,38.642154 C76.4301888,38.5900405 76.5537312,38.5118703 76.6772736,38.4597568 C76.7081592,38.4597568 76.7390448,38.4337001 76.7699304,38.4337001 C76.8934728,38.3815866 77.0479008,38.3294731 77.2023288,38.2773596 C77.3567568,38.2252461 77.5111849,38.1731326 77.6347273,38.1210191 C77.6656129,38.1210191 77.6964985,38.0949624 77.7273841,38.0949624 C77.8509265,38.0689056 77.9744689,38.0167921 78.0980113,37.9907354 C78.1288969,37.9907354 78.1906681,37.9646786 78.2215537,37.9646786 C78.3759817,37.9386219 78.4995241,37.9125651 78.6539521,37.8865084 L78.6848377,37.8865084 L79.1481218,37.8083382 C79.1790074,37.8083382 79.2407786,37.8083382 79.2716642,37.7822814 C79.3952066,37.7822814 79.518749,37.7562247 79.6422914,37.7562247 L79.7967194,37.7562247 C79.9511474,37.7562247 80.1055755,37.7301679 80.2908891,37.7301679 L80.6924019,37.7301679 C80.8159443,37.7301679 80.9086011,37.7301679 81.0321435,37.7562247 L81.0939147,37.7562247 C81.3409996,37.7822814 81.5880844,37.8083382 81.8351692,37.8604517 C85.3561279,38.4858135 88.0431753,41.1436016 88.0431753,44.3225246 L88.0431753,44.3225246 Z M39.7998643,5.21134916 L88.3829169,5.21134916 L77.2332144,32.9617834 C76.7699304,33.0399537 76.3066464,33.1702374 75.8433623,33.3005211 L64.1068334,13.1065431 L52.3394188,33.1702374 C51.8761348,33.0399537 51.3819652,32.9617834 50.8877955,32.8836132 L39.7998643,5.21134916 Z M61.88307,42.0555877 C61.2962436,39.6062536 59.8137346,37.417487 57.7135137,35.8019687 L64.1068334,24.910249 L70.5619243,36.0364794 C68.6470169,37.6519977 67.2571648,39.7104806 66.701224,42.0555877 L61.88307,42.0555877 Z M46.4093832,37.9386219 C46.5638112,37.9125651 46.6873536,37.8865084 46.8417816,37.8604517 L46.9344384,37.8604517 C47.0579808,37.8343949 47.1815232,37.8343949 47.3050656,37.8083382 L47.4286081,37.8083382 C47.5521505,37.8083382 47.6448073,37.7822814 47.7683497,37.7822814 L48.9728882,37.7822814 C49.0964306,37.7822814 49.1890874,37.8083382 49.2817442,37.8083382 C49.3435154,37.8083382 49.374401,37.8083382 49.4361722,37.8343949 C49.5597146,37.8604517 49.6523714,37.8604517 49.7759138,37.8865084 C49.8067994,37.8865084 49.837685,37.8865084 49.8994563,37.9125651 C50.0538843,37.9386219 50.2083123,37.9646786 50.3318547,37.9907354 L50.3627403,37.9907354 C50.4862827,38.0167921 50.6098251,38.0428489 50.7333675,38.0949624 C50.7642531,38.0949624 50.7951387,38.1210191 50.8569099,38.1210191 C50.9495667,38.1470759 51.0731091,38.1731326 51.165766,38.2252461 C51.1966516,38.2252461 51.2275372,38.2513028 51.2584228,38.2513028 C51.3819652,38.3034163 51.5055076,38.3294731 51.62905,38.3815866 L51.6599356,38.3815866 C51.8143636,38.4337001 51.937906,38.4858135 52.0614484,38.5639838 L52.092334,38.5639838 C52.2158764,38.6160973 52.3394188,38.6942675 52.4629613,38.746381 C52.4938469,38.746381 52.4938469,38.7724378 52.5247325,38.7724378 C52.6482749,38.8245512 52.7409317,38.9027215 52.8644741,38.954835 L52.8953597,38.9808917 C53.2659869,39.2154024 53.6057285,39.4759699 53.9454702,39.7365373 L53.9763558,39.7625941 C54.2852118,40.0492183 54.5940678,40.3618992 54.8411526,40.7006369 C55.6441783,41.7429068 56.1074623,42.9675738 56.1074623,44.2964679 C56.1074623,47.9183555 52.6173893,50.8627678 48.3242905,50.8627678 C44.0311918,50.8627678 40.5411187,47.9183555 40.5411187,44.2964679 C40.5102331,41.2478286 43.0119669,38.6682108 46.4093832,37.9386219 L46.4093832,37.9386219 Z M16.0179504,37.7562247 C20.3110491,37.7562247 23.8011222,40.7006369 23.8011222,44.3225246 C23.8011222,47.9444123 20.3110491,50.8888246 16.0179504,50.8888246 C11.7248516,50.8888246 8.23477854,47.9444123 8.23477854,44.3225246 C8.23477854,40.7006369 11.7248516,37.7562247 16.0179504,37.7562247 Z M87.8578617,60.3474233 C87.1783784,63.6826867 84.7384158,66.6010423 81.1556859,68.3468442 C77.7891553,69.9884192 73.6504845,70.5095541 69.2956146,71.0306891 C66.9174232,71.3173133 64.4156894,71.6299942 62.0066124,72.1250724 C55.5824071,73.4539664 49.4052866,76.059641 43.4134797,78.5610886 C35.7538503,81.7660683 28.5266194,84.7886508 21.8244436,84.7886508 C18.3343705,84.7886508 15.2149247,83.954835 12.2499069,82.209033 C5.45507432,78.2484076 5.79481595,70.8222351 6.59784161,66.7573827 C7.33909607,62.9530979 9.40843144,59.3833237 11.38511,55.96989 C11.5086524,55.761436 11.6013092,55.5790388 11.7248516,55.3705848 C12.4043349,55.5790388 13.1147037,55.7353793 13.8559582,55.8396063 C12.6823053,61.3636364 16.0179504,67.0700637 22.5039269,69.8841922 L23.6775798,70.4053272 L24.9438895,70.014476 C30.3488699,68.3989577 35.3523375,65.7672264 39.7689786,62.2495657 C42.2707124,60.269253 44.401819,58.1325999 46.193184,55.8135495 C46.9035528,55.9177765 47.6139217,55.9438332 48.3242905,55.9438332 C54.7484958,55.9438332 60.1534763,52.2177186 61.6977564,47.2148234 L66.8865376,47.2148234 C68.4308177,52.2437753 73.8357982,55.9438332 80.2600035,55.9438332 C82.8235085,55.9438332 85.2016999,55.3445281 87.2401496,54.328315 C88.0431753,56.2825709 88.2902601,58.3149971 87.8578617,60.3474233 L87.8578617,60.3474233 Z" id="Shape" fill="#FFFFFF" fill-rule="nonzero"></path>
        </g>
        <g id="Group" transform="translate(610.000000, 21.000000)" fill="#FFFFFF">
            <path d="M3.63749539,0 L93.3624308,0 C95.3713753,0 97,1.51103769 97,3.375 L97,86.625 C97,88.4890385 95.3713753,90 93.3624308,90 L3.63749539,90 C1.62856196,90 0,88.4890385 0,86.625 L0,3.375 C0,1.51103769 1.62856196,0 3.63749539,0 Z M53.9216786,47.8813846 L53.9216786,40.5 L19.3999631,40.5 L19.3999631,47.8813846 L31.724797,47.8813846 L31.724797,80.7473077 L41.5363846,80.7473077 L41.5363846,47.8813846 L53.9216786,47.8813846 Z M57.8333289,79.8795 C59.4154741,80.6278846 61.2868247,81.1893462 63.4470118,81.5635385 C65.6075678,81.9377308 67.8843224,82.125 70.2780133,82.125 C72.6108384,82.125 74.826727,81.9190385 76.9264171,81.5074615 C79.0257382,81.0958846 80.8664714,80.4174231 82.4486167,79.4724231 C84.0307619,78.5274231 85.2834934,77.2926923 86.2064422,75.7675385 C87.129391,74.2423846 87.5908654,72.3572308 87.5908654,70.1117308 C87.5908654,68.4837692 87.327113,67.0572692 86.7996083,65.8315385 C86.2724725,64.6058077 85.5118328,63.5157692 84.5176893,62.5614231 C83.5239147,61.6070769 82.3320492,60.7510385 80.9424616,59.9933077 C79.5528741,59.2355769 77.986222,58.5197308 76.2417676,57.8461154 C74.9635831,57.3594231 73.8174593,56.8869231 72.803396,56.4286154 C71.7889639,55.9703077 70.926881,55.5023077 70.2171474,55.0253077 C69.5070449,54.5479615 68.9596205,54.0429231 68.5741363,53.5095 C68.1886521,52.9764231 67.9960944,52.3727308 67.9960944,51.6991154 C67.9960944,51.0815769 68.1683634,50.5249615 68.5132703,50.0292692 C68.8581773,49.5332308 69.3447358,49.1074615 69.9736837,48.7519615 C70.6026316,48.3964615 71.3732312,48.1205769 72.2862201,47.9239615 C73.1988401,47.7276923 74.2132722,47.6293846 75.3287787,47.6293846 C76.1403244,47.6293846 76.9972429,47.6854615 77.899903,47.7976154 C78.8025632,47.9101154 79.7103877,48.0831923 80.6230077,48.3168462 C81.5359967,48.5508462 82.4235325,48.8454231 83.2856154,49.2012692 C84.1476983,49.5567692 84.9437508,49.9683462 85.674142,50.436 L85.674142,42.0438462 C84.1930711,41.5197692 82.5755129,41.1313846 80.8207298,40.8790385 C79.0663155,40.6263462 77.0529444,40.5 74.7809853,40.5 C72.4688179,40.5 70.2780133,40.7291538 68.2089407,41.1878077 C66.139868,41.6461154 64.3194235,42.3619615 62.7472381,43.335 C61.1750528,44.3080385 59.9326501,45.5476154 59.02003,47.0537308 C58.1070411,48.5601923 57.6507311,50.3612308 57.6507311,52.4568462 C57.6507311,55.1329615 58.487361,57.4158462 60.1609895,59.3055 C61.8346181,61.1955 64.375125,62.7954231 67.7828792,64.1052692 C69.1219296,64.6106538 70.3691278,65.1063462 71.5255804,65.5930385 C72.6816642,66.0793846 73.6806031,66.5847692 74.5223974,67.1085 C75.3641916,67.6325769 76.0285524,68.2030385 76.5154798,68.8205769 C77.0024073,69.4381154 77.245871,70.1397692 77.245871,70.9258846 C77.245871,71.5060385 77.0935217,72.0439615 76.7891921,72.5396538 C76.4848624,73.0356923 76.023388,73.4659615 75.4047689,73.8308077 C74.7861497,74.1956538 74.0155502,74.4812308 73.0926014,74.6868462 C72.1696526,74.8928077 71.0891902,74.9956154 69.8519519,74.9956154 C67.7423019,74.9956154 65.6529406,74.6543077 63.583868,73.9713462 C61.5151642,73.2883846 59.5980719,72.2637692 57.8333289,70.8978462 L57.8333289,79.8795 Z" id="Shape"></path>
        </g>
        <g id="Group" transform="translate(230.000000, 41.000000)">
            <path d="M36.5,0 C26.7666667,0 20.6833333,5.44444444 18.25,16.3333333 C21.9,10.8888889 26.1583333,8.84722222 31.025,10.2083333 C33.8017037,10.9849228 35.7863574,13.2384691 37.9831167,15.7330833 C41.5617389,19.7967562 45.7035426,24.5 54.75,24.5 C64.4833333,24.5 70.5666667,19.0555556 73,8.16666667 C69.35,13.6111111 65.0916667,15.6527778 60.225,14.2916667 C57.4482963,13.5150772 55.4636426,11.2615309 53.2668833,8.76691667 C49.6882611,4.70324383 45.5464574,0 36.5,0 Z M18.25,24.5 C8.51666667,24.5 2.43333333,29.9444444 0,40.8333333 C3.65,35.3888889 7.90833333,33.3472222 12.775,34.7083333 C15.5517037,35.4849228 17.5363574,37.7384691 19.7331167,40.2330833 C23.3117389,44.2967562 27.4535426,49 36.5,49 C46.2333333,49 52.3166667,43.5555556 54.75,32.6666667 C51.1,38.1111111 46.8416667,40.1527778 41.975,38.7916667 C39.1982963,38.0150772 37.2136426,35.7615309 35.0168833,33.2669167 C31.4382611,29.2032438 27.2964574,24.5 18.25,24.5 Z" id="Shape" fill="#FFFFFF"></path>
            <path d="M109.680329,20.3297443 L103.296499,20.3297443 L103.296499,34.2193809 C103.296499,37.923284 105.458764,37.8654105 109.680329,37.6339166 L109.680329,43.2476447 C101.134234,44.4051144 97.7363897,41.7429341 97.7363897,34.2193809 L97.7363897,20.3297443 L93,20.3297443 L93,14.3109017 L97.7363897,14.3109017 L97.7363897,6.53757881 L103.296499,4.68562726 L103.296499,14.3109017 L109.680329,14.3109017 L109.680329,20.3297443 Z M134.015292,14.3109017 L139.575402,14.3109017 L139.575402,43.2476447 L134.015292,43.2476447 L134.015292,39.0807537 C132.058957,42.1480485 129.02149,44 125.005855,44 C118.004236,44 112.186714,37.3445491 112.186714,28.7792732 C112.186714,20.1561238 118.004236,13.5585464 125.005855,13.5585464 C129.02149,13.5585464 132.058957,15.410498 134.015292,18.4199192 L134.015292,14.3109017 Z M125.881058,38.039031 C130.514482,38.039031 134.015292,34.1615074 134.015292,28.7792732 C134.015292,23.397039 130.514482,19.5195155 125.881058,19.5195155 C121.247633,19.5195155 117.746823,23.397039 117.746823,28.7792732 C117.746823,34.1615074 121.247633,38.039031 125.881058,38.039031 Z M148.842251,9.97039031 C146.885916,9.97039031 145.289959,8.11843876 145.289959,5.97711978 C145.289959,3.77792732 146.885916,1.98384926 148.842251,1.98384926 C150.798586,1.98384926 152.394543,3.77792732 152.394543,5.97711978 C152.394543,8.11843876 150.798586,9.97039031 148.842251,9.97039031 Z M146.062196,43.2476447 L146.062196,14.3109017 L151.622306,14.3109017 L151.622306,43.2476447 L146.062196,43.2476447 Z M158.057618,43.2476447 L158.057618,1 L163.617728,1 L163.617728,43.2476447 L158.057618,43.2476447 Z M199.706958,14.3109017 L205.575962,14.3109017 L197.49321,43.2476447 L192.036066,43.2476447 L186.681886,23.7442799 L181.276224,43.2476447 L175.819079,43.2476447 L167.736327,14.3109017 L173.605332,14.3109017 L178.599134,34.2772544 L184.004796,14.3109017 L189.307493,14.3109017 L194.661673,34.2772544 L199.706958,14.3109017 Z M212.474617,9.97039031 C210.518282,9.97039031 208.922325,8.11843876 208.922325,5.97711978 C208.922325,3.77792732 210.518282,1.98384926 212.474617,1.98384926 C214.430952,1.98384926 216.026909,3.77792732 216.026909,5.97711978 C216.026909,8.11843876 214.430952,9.97039031 212.474617,9.97039031 Z M209.694562,43.2476447 L209.694562,14.3109017 L215.254672,14.3109017 L215.254672,43.2476447 L209.694562,43.2476447 Z M235.22988,13.5585464 C240.99592,13.5585464 245.11452,17.9569314 245.11452,25.4804845 L245.11452,43.2476447 L239.55441,43.2476447 L239.55441,26.1170929 C239.55441,21.7187079 237.28918,19.4037685 233.78837,19.4037685 C230.133113,19.4037685 227.250093,21.8344549 227.250093,27.7375505 L227.250093,43.2476447 L221.689984,43.2476447 L221.689984,14.3109017 L227.250093,14.3109017 L227.250093,18.0148048 C228.949016,15.0053836 231.729071,13.5585464 235.22988,13.5585464 Z M271.473558,2.73620458 L277.033668,2.73620458 L277.033668,43.2476447 L271.473558,43.2476447 L271.473558,39.0807537 C269.517223,42.1480485 266.479756,44 262.464121,44 C255.462502,44 249.644979,37.3445491 249.644979,28.7792732 C249.644979,20.1561238 255.462502,13.5585464 262.464121,13.5585464 C266.479756,13.5585464 269.517223,15.410498 271.473558,18.4199192 L271.473558,2.73620458 Z M263.339324,38.039031 C267.972748,38.039031 271.473558,34.1615074 271.473558,28.7792732 C271.473558,23.397039 267.972748,19.5195155 263.339324,19.5195155 C258.705899,19.5195155 255.205089,23.397039 255.205089,28.7792732 C255.205089,34.1615074 258.705899,38.039031 263.339324,38.039031 Z M295.670331,44 C287.896474,44 282.078952,37.3445491 282.078952,28.7792732 C282.078952,20.1561238 287.896474,13.5585464 295.670331,13.5585464 C300.715616,13.5585464 305.091628,16.5100942 307.150928,21.0242261 L302.363056,24.1493943 C301.230441,21.4293405 298.707799,19.6931359 295.618849,19.6931359 C291.088389,19.6931359 287.639062,23.5706595 287.639062,28.7792732 C287.639062,33.9878869 291.088389,37.8654105 295.618849,37.8654105 C298.707799,37.8654105 301.230441,36.0713324 302.466021,33.4091521 L307.253893,36.4764468 C305.091628,41.0484522 300.715616,44 295.670331,44 Z M316.417778,22.2974428 C316.417778,27.56393 330.266569,24.3808883 330.266569,35.0874832 C330.266569,40.8748318 325.787592,44 320.227482,44 C315.079233,44 311.372493,41.3956931 309.725053,37.2288022 L314.512925,34.1036339 C315.336645,36.7079408 317.395945,38.2705249 320.227482,38.2705249 C322.698642,38.2705249 324.603494,37.3445491 324.603494,35.0296097 C324.603494,29.8788694 310.754703,32.7725437 310.754703,22.4131898 C310.754703,16.9730821 314.924785,13.5585464 320.176,13.5585464 C324.397564,13.5585464 327.898374,15.7577389 329.700262,19.577389 L325.015354,22.5289367 C324.088669,20.2718708 322.286782,19.230148 320.176,19.230148 C318.168182,19.230148 316.417778,20.2139973 316.417778,22.2974428 Z M340.151208,22.2974428 C340.151208,27.56393 354,24.3808883 354,35.0874832 C354,40.8748318 349.521023,44 343.960913,44 C338.812664,44 335.105924,41.3956931 333.458484,37.2288022 L338.246356,34.1036339 C339.070076,36.7079408 341.129376,38.2705249 343.960913,38.2705249 C346.432073,38.2705249 348.336925,37.3445491 348.336925,35.0296097 C348.336925,29.8788694 334.488134,32.7725437 334.488134,22.4131898 C334.488134,16.9730821 338.658216,13.5585464 343.909431,13.5585464 C348.130995,13.5585464 351.631805,15.7577389 353.433693,19.577389 L348.748785,22.5289367 C347.8221,20.2718708 346.020213,19.230148 343.909431,19.230148 C341.901613,19.230148 340.151208,20.2139973 340.151208,22.2974428 Z" id="Shape" fill="#ECECED"></path>
        </g>
        <g id="Group" transform="translate(56.000000, 21.000000)" fill="#FFFFFF" fill-rule="nonzero">
            <path d="M34.992,23.495 L62.847,23.495 L62.847,25.714 L37.546,25.714 L37.546,42.413 L61.338,42.413 L61.338,44.632 L37.546,44.632 L37.546,62.966 L63.137,62.966 L63.137,65.185 L34.992,65.185 L34.992,23.495 Z M65.342,23.495 L68.302,23.495 L81.417,41.829 L94.822,23.495 L113.055,0.207 L83.1,43.756 L98.536,65.185 L95.46,65.185 L81.417,45.683 L67.316,65.185 L64.298,65.185 L79.85,43.756 L65.343,23.495 L65.342,23.495 Z M99.639,25.714 L99.639,23.495 L131.381,23.495 L131.381,25.714 L116.758,25.714 L116.758,65.184 L114.204,65.184 L114.204,25.714 L99.64,25.714 L99.639,25.714 Z M0.145,23.495 L3.337,23.495 L47.348,89.498 L29.16,65.185 L2.814,26.648 L2.698,65.185 L0.145,65.185 L0.145,23.495 Z M131.125,62.296 C130.602,62.296 130.211,61.891 130.211,61.368 C130.211,60.844 130.602,60.439 131.124,60.439 C131.652,60.439 132.037,60.844 132.037,61.368 C132.037,61.891 131.652,62.296 131.124,62.296 L131.125,62.296 Z M133.633,59.853 L135,59.853 C135.019,60.595 135.56,61.093 136.354,61.093 C137.242,61.093 137.745,60.558 137.745,59.554 L137.745,53.198 L139.136,53.198 L139.136,59.56 C139.136,61.368 138.093,62.409 136.366,62.409 C134.746,62.409 133.634,61.399 133.634,59.853 L133.633,59.853 Z M140.955,59.773 L142.334,59.773 C142.452,60.626 143.284,61.168 144.483,61.168 C145.6,61.168 146.42,60.588 146.42,59.791 C146.42,59.106 145.899,58.694 144.712,58.414 L143.557,58.134 C141.937,57.754 141.197,56.968 141.197,55.647 C141.197,54.045 142.501,52.979 144.457,52.979 C146.277,52.979 147.607,54.045 147.687,55.559 L146.333,55.559 C146.203,54.731 145.483,54.213 144.439,54.213 C143.339,54.213 142.607,54.743 142.607,55.553 C142.607,56.195 143.079,56.563 144.247,56.837 L145.234,57.08 C147.072,57.51 147.83,58.258 147.83,59.61 C147.83,61.33 146.5,62.409 144.377,62.409 C142.39,62.409 141.054,61.38 140.955,59.772 L140.955,59.773 Z" id="Shape"></path>
        </g>
    </g>
</svg>