<?xml version="1.0" encoding="UTF-8"?>
<svg width="2128px" height="236px" viewBox="0 0 2128 236" version="1.1" xmlns="http://www.w3.org/2000/svg" xmlns:xlink="http://www.w3.org/1999/xlink">
    <!-- Generator: Sketch 64 (93537) - https://sketch.com -->
    <title>Untitled</title>
    <desc>Created with Sketch.</desc>
    <g id="Page-1" stroke="none" stroke-width="1" fill="none" fill-rule="evenodd">
        <g id="header" transform="translate(1.000000, 1.000000)">
            <rect id="Rectangle" stroke="#979797" fill="#353535" fill-rule="nonzero" x="268" y="0" width="1858" height="234"></rect>
            <rect id="Rectangle" stroke="#85DAFF" fill="#2A2929" fill-rule="nonzero" x="0" y="0" width="2126" height="234"></rect>
            <g id="Group" transform="translate(1798.000000, 40.000000)">
                <path d="M133.208267,49.7222222 L118.701031,69.9375548 C123.466693,72.9843633 126.83069,76.9984127 128.162272,81.5444444 L139.095262,81.5444444 C140.356761,77.240223 143.440424,73.3712597 147.85567,70.3728132 L133.208267,49.7222222 Z" id="Path"></path>
                <path d="M110.419284,65.9122768 L134.879328,25.7489674 L159.275172,66.1730774 C160.238166,65.9122768 161.20116,65.7036362 162.164154,65.4949956 L185.340206,9.94444444 L84.3542498,9.94444444 L107.466102,65.3385152 C108.429096,65.4949956 109.45629,65.7036362 110.419284,65.9122768 Z M102.009137,101.433333 C110.93288,101.433333 118.187434,95.5392372 118.187434,88.2889775 C118.187434,85.6288104 117.22444,83.1772836 115.555251,81.0908779 C115.041654,80.4127961 114.399658,79.7868745 113.757662,79.2131128 L113.693463,79.1609528 C113.051467,78.5871912 112.281072,78.0655898 111.510677,77.6483086 L111.446477,77.5961486 C111.253878,77.4918282 110.99708,77.3353478 110.740282,77.2310275 C110.676082,77.2310275 110.676082,77.1788673 110.611882,77.1788673 C110.355084,77.0745471 110.098286,76.9180667 109.841487,76.8137463 L109.777288,76.8137463 C109.52049,76.7094261 109.199492,76.5529457 108.942693,76.4486253 L108.878494,76.4486253 C108.621695,76.3443051 108.364897,76.2399847 108.108098,76.1878247 C108.043899,76.1878247 107.979699,76.1356645 107.9155,76.1356645 C107.722901,76.0835043 107.466102,75.9791841 107.273504,75.9270239 C107.209304,75.9270239 107.145105,75.8748639 107.016705,75.8748639 C106.759907,75.8227037 106.503109,75.7183835 106.24631,75.6662233 L106.182111,75.6662233 C105.861113,75.6140631 105.604314,75.5619029 105.283316,75.5097429 C105.219117,75.5097429 105.154917,75.5097429 105.026518,75.4575827 C104.76972,75.4054225 104.577121,75.4054225 104.320323,75.3532625 C104.191923,75.3532625 104.127724,75.3532625 103.999325,75.3011023 C103.806726,75.3011023 103.549927,75.248942 103.357329,75.248942 L100.853545,75.248942 C100.596746,75.248942 100.404147,75.3011023 100.147349,75.3011023 L99.8905508,75.3011023 C99.6337524,75.3532625 99.3769542,75.3532625 99.1201557,75.4054225 L98.9275571,75.4054225 C98.6065591,75.4575827 98.3497606,75.5097429 98.0287626,75.5619029 C90.9668076,76.9702267 85.7024413,82.186241 85.7024413,88.3411377 C85.8308404,95.4870772 93.0853943,101.433333 102.009137,101.433333 L102.009137,101.433333 Z M170.060704,75.1446218 L169.932304,75.1446218 C169.675506,75.1446218 169.482907,75.0924616 169.226109,75.0924616 L168.391514,75.0924616 C168.070516,75.0924616 167.749518,75.0924616 167.364321,75.1446218 L167.043323,75.1446218 C166.786525,75.1446218 166.529726,75.196782 166.272928,75.196782 C166.208728,75.196782 166.080329,75.196782 166.016129,75.248942 L165.053135,75.4054225 L164.988936,75.4054225 C164.667938,75.4575827 164.41114,75.5097429 164.090142,75.5619029 C164.025942,75.5619029 163.897543,75.6140631 163.833343,75.6140631 C163.576545,75.6662233 163.319747,75.7183835 163.062948,75.8227037 C162.998749,75.8227037 162.934549,75.8748639 162.870349,75.8748639 C162.549351,75.9791841 162.228353,76.0835043 161.971555,76.1878247 C161.650557,76.2921449 161.393759,76.3964653 161.072761,76.5007855 C161.008561,76.5007855 160.944362,76.5529457 160.880162,76.5529457 C160.623364,76.6572659 160.366565,76.7615861 160.109767,76.9180667 C160.109767,76.9180667 160.045567,76.9180667 160.045567,76.9702267 C159.467771,77.2310275 158.889975,77.5439884 158.376378,77.9091094 L158.312178,77.9612694 C157.477584,78.4828708 156.771388,79.0566324 156.065193,79.6825541 C155.358997,80.3084759 154.781201,81.0387179 154.267604,81.7689598 C152.919413,83.6988851 152.149018,85.9417712 152.149018,88.2889775 C152.149018,95.5392372 159.403572,101.433333 168.327315,101.433333 C177.251058,101.433333 184.505612,95.5392372 184.505612,88.2889775 C184.505612,81.9254402 178.856047,76.5529457 171.473095,75.3532625 C171.087897,75.248942 170.5743,75.196782 170.060704,75.1446218 L170.060704,75.1446218 Z M34.9205649,101.433333 C43.844308,101.433333 51.0988619,95.5392372 51.0988619,88.2889775 C51.0988619,81.0387179 43.844308,75.1446218 34.9205649,75.1446218 C25.9968219,75.1446218 18.742268,81.0387179 18.742268,88.2889775 C18.742268,95.5392372 25.9968219,101.433333 34.9205649,101.433333 L34.9205649,101.433333 Z" id="Shape"></path>
                <path d="M166.975076,112.56256 C153.578834,112.56256 142.307957,105.26491 139.087707,95.4666667 L128.267665,95.4666667 C125.047414,105.26491 113.776538,112.56256 100.380296,112.56256 C98.8345754,112.56256 97.3532603,112.460495 95.93635,112.307397 C92.2008594,116.849291 87.7569137,121.033957 82.540108,124.912429 C73.3301916,131.801818 62.8965801,136.90507 51.6257033,140.120119 L48.9850979,140.885606 L46.5377075,139.864956 C33.0126553,134.353444 26.0569144,123.177323 28.5043048,112.35843 C26.9585845,112.1543 25.4772692,111.848104 24.0603591,111.439844 C23.8027389,111.797072 23.6095238,112.205332 23.3519039,112.613592 C19.2299833,119.349884 14.9148476,126.290307 13.3691274,133.741054 C11.6945971,141.702127 10.986142,156.246394 25.1552441,164.003336 C31.3381251,167.371483 37.8430311,169.055556 45.1207973,169.055556 C59.0966843,169.055556 74.1674566,163.135784 90.1398992,156.858784 C102.634471,151.959663 115.515473,146.856411 128.911715,144.253753 C133.999711,143.284135 139.152112,142.671745 144.111298,142.110387 C153.192404,141.089736 161.822675,140.069086 168.842821,136.854038 C176.313802,133.434859 181.401798,127.719217 182.818708,121.187055 C183.720379,117.206519 183.205138,113.17495 181.530608,109.449576 C177.279877,111.388812 172.320692,112.56256 166.975076,112.56256 L166.975076,112.56256 Z" id="Path"></path>
                <path d="M195.889745,88.1525767 C195.889745,77.3731905 186.692204,68.3039954 174.343057,65.7127968 L202,0 L64.9373382,0 L92.6585991,65.9200927 C80.6953636,68.7185871 71.8837329,77.6323103 71.8837329,88.2044008 C71.8837329,95.9779965 76.7076183,102.870585 84.039924,107.120151 C81.1455928,110.436885 77.8010324,113.494499 74.0062425,116.396642 C66.8668921,121.786335 58.9557202,125.932252 50.4013636,128.678923 C42.6831471,124.481181 39.3385866,117.070353 42.3615547,110.436885 C54.1318351,107.534742 62.6861917,98.6728431 62.6861917,88.2562247 C62.6861917,75.4557036 49.7581789,65.090909 33.9358351,65.090909 C18.0491727,65.090909 5.12115998,75.5075274 5.12115998,88.3080485 C5.12115998,94.6305732 8.33708355,100.434858 13.4825612,104.580776 C13.0323319,105.306312 12.5821026,106.031847 12.1318733,106.809207 C7.82253578,113.960915 2.93433197,122.045455 1.0690963,131.11465 C-2.66137501,149.25304 3.44887974,163.815576 18.1778096,172.055588 C26.4748924,176.667921 35.6081152,179 45.4488413,179 C62.3645993,179 79.537631,172.159236 96.1317967,165.525767 C107.966395,160.809786 120.186905,155.886508 132.214459,153.502606 C136.652433,152.621598 141.283363,152.103358 146.171567,151.533295 C156.076612,150.393167 166.303248,149.201216 175.50079,144.899826 C186.241975,139.872901 193.57428,131.477417 195.69679,121.838159 C197.304752,114.427331 195.69679,106.964679 191.580408,100.434858 C194.346102,96.859004 195.889745,92.6612623 195.889745,88.1525767 Z M183.347643,88.1525767 C183.347643,95.3561089 176.079656,101.212218 167.139389,101.212218 C158.199121,101.212218 150.931134,95.3561089 150.931134,88.1525767 C150.931134,85.8204979 151.702956,83.5920672 153.053643,81.6745802 C153.568191,80.9490445 154.211376,80.223509 154.854561,79.6016214 C155.497745,78.9797336 156.269567,78.40967 157.105707,77.8914301 L157.170026,77.8396063 C157.684573,77.5286624 158.26344,77.2177185 158.842306,76.9067748 C158.842306,76.9067748 158.906624,76.9067748 158.906624,76.8549507 C159.163898,76.7513028 159.421172,76.5958309 159.678446,76.492183 C159.742765,76.492183 159.807083,76.4403591 159.871401,76.4403591 C160.128675,76.3367111 160.450268,76.2330632 160.77186,76.1294152 C161.093452,76.0257672 161.415045,75.9221193 161.672319,75.8184713 C161.736637,75.8184713 161.800956,75.7666474 161.865274,75.7666474 C162.122548,75.7148234 162.379822,75.6111754 162.637096,75.5593515 C162.701414,75.5593515 162.830051,75.5075274 162.89437,75.5075274 C163.215962,75.4557036 163.473236,75.4038795 163.794828,75.3520556 L163.859147,75.3520556 L164.823924,75.1965838 C164.888242,75.1965838 165.016879,75.1965838 165.081198,75.1447597 C165.338471,75.1447597 165.595745,75.0929358 165.853019,75.0929358 L166.174612,75.0929358 C166.496204,75.0929358 166.817796,75.0411117 167.203707,75.0411117 L168.039847,75.0411117 C168.297121,75.0411117 168.490077,75.0411117 168.74735,75.0929358 L168.875987,75.0929358 C169.390535,75.1447597 169.905083,75.1965838 170.419631,75.3002317 C177.751936,76.5440068 183.347643,81.8300521 183.347643,88.1525767 L183.347643,88.1525767 Z M82.8821916,10.3647944 L184.055147,10.3647944 L160.836178,65.5573248 C159.871401,65.7127968 158.906624,65.9719166 157.941847,66.2310364 L133.500828,26.0674579 L108.995491,65.9719166 C108.030714,65.7127968 107.001618,65.5573248 105.972523,65.4018529 L82.8821916,10.3647944 Z M128.869898,83.6438911 C127.647847,78.7724377 124.560561,74.4192241 120.186905,71.2061377 L133.500828,49.5437175 L146.943389,71.6725535 C142.955643,74.8856399 140.061312,78.9797336 138.90358,83.6438911 L128.869898,83.6438911 Z M96.6463444,75.4557036 C96.9679367,75.4038795 97.2252106,75.3520556 97.5468029,75.3002317 L97.7397583,75.3002317 C97.9970322,75.2484076 98.254306,75.2484076 98.5115799,75.1965838 L98.768854,75.1965838 C99.0261278,75.1965838 99.2190832,75.1447597 99.4763571,75.1447597 L101.984777,75.1447597 C102.242051,75.1447597 102.435007,75.1965838 102.627962,75.1965838 C102.756599,75.1965838 102.820918,75.1965838 102.949554,75.2484076 C103.206828,75.3002317 103.399784,75.3002317 103.657058,75.3520556 C103.721376,75.3520556 103.785695,75.3520556 103.914332,75.4038795 C104.235924,75.4557036 104.557516,75.5075274 104.81479,75.5593515 L104.879109,75.5593515 C105.136383,75.6111754 105.393656,75.6629995 105.65093,75.7666474 C105.715249,75.7666474 105.779567,75.8184713 105.908204,75.8184713 C106.10116,75.8702954 106.358433,75.9221193 106.551389,76.0257672 C106.615707,76.0257672 106.680026,76.0775911 106.744344,76.0775911 C107.001618,76.1812391 107.258892,76.2330632 107.516166,76.3367111 L107.580484,76.3367111 C107.902077,76.4403591 108.159351,76.5440069 108.416625,76.6994789 L108.480943,76.6994789 C108.738217,76.8031269 108.995491,76.9585987 109.252765,77.0622467 C109.317083,77.0622467 109.317083,77.1140707 109.381402,77.1140707 C109.638676,77.2177185 109.831631,77.3731905 110.088905,77.4768385 L110.153223,77.5286624 C110.925045,77.9950781 111.632548,78.5133179 112.340051,79.0315575 L112.40437,79.0833816 C113.047554,79.6534453 113.690739,80.2753329 114.205287,80.9490445 C115.877567,83.0220035 116.842344,85.4577301 116.842344,88.1007528 C116.842344,95.3042848 109.574357,101.160394 100.634089,101.160394 C91.6938221,101.160394 84.4258348,95.3042848 84.4258348,88.1007528 C84.3615164,82.037348 89.5713125,76.9067748 96.6463444,75.4557036 L96.6463444,75.4557036 Z M33.3569689,75.0929358 C42.2972363,75.0929358 49.5652236,80.9490445 49.5652236,88.1525767 C49.5652236,95.3561089 42.2972363,101.212218 33.3569689,101.212218 C24.4167013,101.212218 17.1487141,95.3561089 17.1487141,88.1525767 C17.1487141,80.9490445 24.4167013,75.0929358 33.3569689,75.0929358 Z M182.961733,120.02432 C181.546726,126.657788 176.465567,132.462073 169.004624,135.934279 C161.993911,139.199189 153.375236,140.235669 144.306331,141.272148 C139.353809,141.842212 134.144013,142.4641 129.127172,143.448755 C115.74893,146.091778 102.885236,151.274175 90.4074526,156.249276 C74.4564718,162.623625 59.4059497,168.635205 45.4488413,168.635205 C38.180854,168.635205 31.6846886,166.976838 25.5101154,163.504632 C11.3600517,155.627388 12.0675549,140.857556 13.7398351,132.773017 C15.2834784,125.206717 19.592816,118.106833 23.7091981,111.317892 C23.966472,110.9033 24.1594274,110.540533 24.4167013,110.125941 C25.8317077,110.540533 27.3110324,110.851477 28.8546758,111.058773 C26.4105739,122.045455 33.3569689,133.394904 46.8638478,138.991893 L49.3079497,140.028373 L51.945007,139.251013 C63.2007394,136.037927 73.6203317,130.803706 82.817873,123.80747 C88.0276691,119.868848 92.4656437,115.619282 96.1961151,111.006948 C97.6754399,111.214244 99.1547648,111.266068 100.634089,111.266068 C114.012331,111.266068 125.268064,103.85524 128.483988,93.9050377 L139.289491,93.9050377 C142.505414,103.907064 153.761147,111.266068 167.139389,111.266068 C172.477822,111.266068 177.430344,110.074117 181.675363,108.052982 C183.347643,111.93978 183.862191,115.98205 182.961733,120.02432 L182.961733,120.02432 Z" id="Shape" fill="#FFFFFF" fill-rule="nonzero"></path>
            </g>
            <g id="Group" transform="translate(1530.000000, 40.000000)" fill="#FFFFFF" fill-rule="nonzero">
                <path d="M7.5749904,0 L194.424856,0 C198.608431,0 202,3.00528607 202,6.7125 L202,172.2875 C202,175.994865 198.608431,179 194.424856,179 L7.5749904,179 C3.39143831,179 0,175.994865 0,172.2875 L0,6.7125 C0,3.00528607 3.39143831,0 7.5749904,0 Z M112.290506,95.2307538 L112.290506,80.55 L40.3999232,80.55 L40.3999232,95.2307538 L66.0660721,95.2307538 L66.0660721,160.597423 L86.4984504,160.597423 L86.4984504,95.2307538 L112.290506,95.2307538 Z M120.436417,158.87145 C123.731193,160.359904 127.628233,161.476589 132.126767,162.220815 C136.626069,162.965042 141.367352,163.3375 146.352151,163.3375 C151.2102,163.3375 155.82473,162.927865 160.197281,162.109285 C164.569063,161.290704 168.402343,159.941319 171.697119,158.061819 C174.991896,156.182319 177.600677,153.726577 179.522694,150.693215 C181.444711,147.659854 182.40572,143.910492 182.40572,139.444442 C182.40572,136.206608 181.856462,133.369458 180.757947,130.931615 C179.6602,128.493773 178.076188,126.325808 176.00591,124.427719 C173.9364,122.529631 171.45437,120.827065 168.56059,119.320023 C165.66681,117.812981 162.404297,116.389242 158.771516,115.049496 C156.10973,114.081519 153.722956,113.141769 151.611196,112.230246 C149.498667,111.318723 147.703402,110.387923 146.2254,109.439223 C144.74663,108.489835 143.606632,107.485369 142.803871,106.42445 C142.001111,105.364219 141.600114,104.163542 141.600114,102.823796 C141.600114,101.595581 141.95886,100.488535 142.67712,99.5026576 C143.39538,98.5160924 144.408625,97.6692845 145.718393,96.9622345 C147.028161,96.2551845 148.632914,95.7064807 150.53419,95.3154345 C152.434698,94.9250769 154.547227,94.7295538 156.87024,94.7295538 C158.560263,94.7295538 160.344774,94.8410845 162.22454,95.0641462 C164.104307,95.2878962 165.994828,95.6321269 167.895336,96.0968386 C169.796612,96.5622386 171.644882,97.1481193 173.440148,97.8558576 C175.235413,98.5629076 176.893172,99.3814886 178.414193,100.3116 L178.414193,83.6205386 C175.329901,82.5782076 171.961377,81.8057538 168.307087,81.3038655 C164.653564,80.8012886 160.460771,80.55 155.729475,80.55 C150.914446,80.55 146.352151,81.0057614 142.043361,81.9179731 C137.73457,82.8294962 133.943542,84.2532345 130.669506,86.1885 C127.395471,88.1237655 124.808199,90.5891462 122.907691,93.5846424 C121.006415,96.5808269 120.056162,100.162892 120.056162,104.330839 C120.056162,109.653335 121.798422,114.193739 125.28371,117.95205 C128.768999,121.71105 134.059539,124.893119 141.156099,127.498258 C143.944637,128.503411 146.541895,129.489289 148.950178,130.457265 C151.357692,131.424554 153.437957,132.429708 155.190972,133.47135 C156.943987,134.513681 158.327501,135.648265 159.341515,136.876481 C160.355529,138.104696 160.862535,139.500208 160.862535,141.063704 C160.862535,142.217565 160.545272,143.287435 159.911513,144.273311 C159.277755,145.259877 158.316746,146.115635 157.028488,146.841273 C155.740229,147.566911 154.135476,148.134892 152.213459,148.543839 C150.291441,148.953473 148.041406,149.157946 145.46489,149.157946 C141.071598,149.157946 136.720557,148.479123 132.411766,147.120789 C128.103744,145.762454 124.111449,143.724608 120.436417,141.007939 L120.436417,158.87145 Z" id="Shape"></path>
            </g>
            <g id="Group" transform="translate(743.000000, 80.000000)" fill-rule="nonzero">
                <path d="M75.4745763,0 C55.3480227,0 42.7689265,10.7777778 37.7372881,32.3333333 C45.2847458,21.5555556 54.0901129,17.5138889 64.1533898,20.2083333 C69.8950483,21.7456635 73.9989085,26.2067654 78.54136,31.1450833 C85.9412228,39.189497 94.5056305,48.5 113.211864,48.5 C133.338418,48.5 145.917514,37.7222223 150.949153,16.1666667 C143.401695,26.9444444 134.596328,30.9861112 124.533051,28.2916667 C118.791392,26.7543365 114.687532,22.2932346 110.145081,17.3549167 C102.745218,9.31050309 94.1808102,0 75.4745763,0 Z M37.7372881,48.5 C17.6107345,48.5 5.03163841,59.2777777 0,80.8333333 C7.54745763,70.0555556 16.3528249,66.0138888 26.4161017,68.7083333 C32.1577602,70.2456635 36.2616204,74.7067654 40.8040718,79.6450833 C48.2039347,87.689497 56.7683423,97 75.4745763,97 C95.6011299,97 108.180226,86.2222223 113.211864,64.6666667 C105.664407,75.4444444 96.8590396,79.4861112 86.7957627,76.7916667 C81.0541042,75.2543365 76.950244,70.7932346 72.4077926,65.8549167 C65.0079297,57.810503 56.4435221,48.5 37.7372881,48.5 Z" id="Shape" fill="#FFFFFF"></path>
                <path d="M226.796613,40.2445959 L213.59615,40.2445959 L213.59615,67.7404071 C213.59615,75.0726234 218.067275,74.9580575 226.796613,74.4997941 L226.796613,85.6126844 C209.125026,87.904002 202.098975,82.6339716 202.098975,67.7404071 L202.098975,40.2445959 L192.305085,40.2445959 L192.305085,28.3297442 L202.098975,28.3297442 L202.098975,12.9417376 L213.59615,9.27562947 L213.59615,28.3297442 L226.796613,28.3297442 L226.796613,40.2445959 Z M277.116367,28.3297442 L288.613543,28.3297442 L288.613543,85.6126844 L277.116367,85.6126844 L277.116367,77.363941 C273.071064,83.4359327 266.7902,87.1020408 258.486683,87.1020408 C244.008759,87.1020408 231.979307,73.9269645 231.979307,56.9712143 C231.979307,39.9008981 244.008759,26.8403878 258.486683,26.8403878 C266.7902,26.8403878 273.071064,30.506496 277.116367,36.4639217 L277.116367,28.3297442 Z M260.296425,75.3017552 C269.877403,75.3017552 277.116367,67.6258412 277.116367,56.9712143 C277.116367,46.3165874 269.877403,38.6406735 260.296425,38.6406735 C250.715445,38.6406735 243.476481,46.3165874 243.476481,56.9712143 C243.476481,67.6258412 250.715445,75.3017552 260.296425,75.3017552 Z M307.775502,19.7373033 C303.730199,19.7373033 300.430085,16.0711951 300.430085,11.8322575 C300.430085,7.47875408 303.730199,3.9272118 307.775502,3.9272118 C311.820805,3.9272118 315.120919,7.47875408 315.120919,11.8322575 C315.120919,16.0711951 311.820805,19.7373033 307.775502,19.7373033 Z M302.026914,85.6126844 L302.026914,28.3297442 L313.52409,28.3297442 L313.52409,85.6126844 L302.026914,85.6126844 Z M326.831007,85.6126844 L326.831007,1.97959184 L338.328183,1.97959184 L338.328183,85.6126844 L326.831007,85.6126844 Z M412.953371,28.3297442 L425.089277,28.3297442 L408.37579,85.6126844 L397.091526,85.6126844 L386.020171,47.0039827 L374.842361,85.6126844 L363.558096,85.6126844 L346.844608,28.3297442 L358.980517,28.3297442 L369.306684,67.854973 L380.484493,28.3297442 L391.449392,28.3297442 L402.520748,67.854973 L412.953371,28.3297442 Z M439.354293,19.7373033 C435.30899,19.7373033 432.008875,16.0711951 432.008875,11.8322575 C432.008875,7.47875408 435.30899,3.9272118 439.354293,3.9272118 C443.399596,3.9272118 446.69971,7.47875408 446.69971,11.8322575 C446.69971,16.0711951 443.399596,19.7373033 439.354293,19.7373033 Z M433.605704,85.6126844 L433.605704,28.3297442 L445.102881,28.3297442 L445.102881,85.6126844 L433.605704,85.6126844 Z M486.407548,26.8403878 C498.330546,26.8403878 506.846974,35.5473948 506.846974,50.4409591 L506.846974,85.6126844 L495.349797,85.6126844 L495.349797,51.7011839 C495.349797,42.9941769 490.665762,38.4115417 483.426799,38.4115417 C475.868471,38.4115417 469.906972,43.2233087 469.906972,54.9090285 L469.906972,85.6126844 L458.409797,85.6126844 L458.409797,28.3297442 L469.906972,28.3297442 L469.906972,35.6619605 C473.419999,29.7045349 479.168587,26.8403878 486.407548,26.8403878 Z M561.352103,5.41656825 L572.84928,5.41656825 L572.84928,85.6126844 L561.352103,85.6126844 L561.352103,77.363941 C557.3068,83.4359327 551.025936,87.1020408 542.72242,87.1020408 C528.244496,87.1020408 516.215041,73.9269645 516.215041,56.9712143 C516.215041,39.9008981 528.244496,26.8403878 542.72242,26.8403878 C551.025936,26.8403878 557.3068,30.506496 561.352103,36.4639217 L561.352103,5.41656825 Z M544.532161,75.3017552 C554.11314,75.3017552 561.352103,67.6258412 561.352103,56.9712143 C561.352103,46.3165874 554.11314,38.6406735 544.532161,38.6406735 C534.951181,38.6406735 527.712218,46.3165874 527.712218,56.9712143 C527.712218,67.6258412 534.951181,75.3017552 544.532161,75.3017552 Z M611.386108,87.1020408 C595.311353,87.1020408 583.281901,73.9269645 583.281901,56.9712143 C583.281901,39.9008981 595.311353,26.8403878 611.386108,26.8403878 C621.818731,26.8403878 630.867434,32.6832477 635.125648,41.6193864 L625.225302,47.8059438 C622.883285,42.4213475 617.666974,38.9843711 611.279654,38.9843711 C601.911584,38.9843711 594.779077,46.6602851 594.779077,56.9712143 C594.779077,67.2821435 601.911584,74.9580575 611.279654,74.9580575 C617.666974,74.9580575 622.883285,71.4065152 625.438213,66.1364848 L635.338558,72.2084763 C630.867434,81.2591809 621.818731,87.1020408 611.386108,87.1020408 Z M654.287609,44.1398357 C654.287609,54.5653308 682.924092,48.2642075 682.924092,69.4588953 C682.924092,80.9154834 673.662478,87.1020408 662.165302,87.1020408 C651.51977,87.1020408 643.854986,81.9465761 640.448415,73.6978329 L650.34876,67.5112753 C652.052046,72.66674 656.310259,75.7600187 662.165302,75.7600187 C667.275158,75.7600187 671.214005,73.9269645 671.214005,69.3443294 C671.214005,59.147966 642.577521,64.87626 642.577521,44.3689676 C642.577521,33.5997748 651.200403,26.8403878 662.058847,26.8403878 C670.788183,26.8403878 678.027146,31.1938913 681.753084,38.7552394 L672.065647,44.5980992 C670.149451,40.13003 666.423515,38.067844 662.058847,38.067844 C657.907088,38.067844 654.287609,40.015464 654.287609,44.1398357 Z M703.363515,44.1398357 C703.363515,54.5653308 732,48.2642075 732,69.4588953 C732,80.9154834 722.738387,87.1020408 711.24121,87.1020408 C700.595678,87.1020408 692.930894,81.9465761 689.524323,73.6978329 L699.424668,67.5112753 C701.127954,72.66674 705.386167,75.7600187 711.24121,75.7600187 C716.351066,75.7600187 720.289913,73.9269645 720.289913,69.3443294 C720.289913,59.147966 691.65343,64.87626 691.65343,44.3689676 C691.65343,33.5997748 700.276311,26.8403878 711.134756,26.8403878 C719.864091,26.8403878 727.103054,31.1938913 730.828992,38.7552394 L721.141555,44.5980992 C719.225359,40.13003 715.499423,38.067844 711.134756,38.067844 C706.982996,38.067844 703.363515,40.015464 703.363515,44.1398357 Z" id="Shape" fill="#ECECED"></path>
            </g>
            <g id="Group" transform="translate(382.000000, 40.000000)" fill="#FFFFFF" fill-rule="nonzero">
                <path d="M72.5847568,46.7289444 L130.365061,46.7289444 L130.365061,51.1422889 L77.8825811,51.1422889 L77.8825811,84.3547444 L127.234905,84.3547444 L127.234905,88.7680889 L77.8825811,88.7680889 L77.8825811,125.232378 L130.966615,125.232378 L130.966615,129.645722 L72.5847568,129.645722 L72.5847568,46.7289444 Z M135.5405,46.7289444 L141.6805,46.7289444 L168.885264,83.1932333 L196.691581,46.7289444 L234.512736,0.4117 L172.376351,87.0258222 L204.395622,129.645722 L198.015,129.645722 L168.885264,90.8584111 L139.635216,129.645722 L133.374905,129.645722 L165.634797,87.0258222 L135.542574,46.7289444 L135.5405,46.7289444 Z M206.683601,51.1422889 L206.683601,46.7289444 L272.526804,46.7289444 L272.526804,51.1422889 L242.193959,51.1422889 L242.193959,129.643733 L236.896135,129.643733 L236.896135,51.1422889 L206.685676,51.1422889 L206.683601,51.1422889 Z M0.300777027,46.7289444 L6.92202027,46.7289444 L98.2151081,178.001578 L60.4872973,129.645722 L5.83714865,52.9999111 L5.59652703,129.645722 L0.300777027,129.645722 L0.300777027,46.7289444 Z M271.995777,123.899822 C270.910905,123.899822 270.099845,123.094322 270.099845,122.054133 C270.099845,121.011956 270.910905,120.206456 271.993703,120.206456 C273.088946,120.206456 273.887561,121.011956 273.887561,122.054133 C273.887561,123.094322 273.088946,123.899822 271.993703,123.899822 L271.995777,123.899822 Z M277.198182,119.040967 L280.033784,119.040967 C280.073196,120.516722 281.195405,121.507189 282.842419,121.507189 C284.684419,121.507189 285.727804,120.443133 285.727804,118.446289 L285.727804,105.804911 L288.613189,105.804911 L288.613189,118.458222 C288.613189,122.054133 286.449669,124.124567 282.867311,124.124567 C279.506905,124.124567 277.200257,122.115789 277.200257,119.040967 L277.198182,119.040967 Z M292.386385,118.881856 L295.246878,118.881856 C295.491649,120.578378 297.217486,121.656356 299.704601,121.656356 C302.021622,121.656356 303.722568,120.5028 303.722568,118.917656 C303.722568,117.555267 302.641845,116.735844 300.179622,116.178956 L297.783777,115.622067 C294.423372,114.866289 292.888372,113.303022 292.888372,110.6757 C292.888372,107.4895 295.593291,105.369344 299.650669,105.369344 C303.425939,105.369344 306.184791,107.4895 306.350736,110.500678 L303.542101,110.500678 C303.272439,108.853878 301.778926,107.823633 299.613331,107.823633 C297.331574,107.823633 295.813169,108.877744 295.813169,110.488744 C295.813169,111.765611 296.79225,112.497522 299.215061,113.042478 L301.262419,113.525778 C305.075027,114.381 306.647365,115.868689 306.647365,118.557667 C306.647365,121.978556 303.888514,124.124567 299.484723,124.124567 C295.363041,124.124567 292.591743,122.078 292.386385,118.879867 L292.386385,118.881856 Z" id="Shape"></path>
            </g>
        </g>
        <g id="lia-logo-svg" transform="translate(121.000000, 21.000000)">
            <polyline id="Path" stroke="#FFFFFF" stroke-width="3" points="158 6.36100134 153.026528 4.80058563 101.664486 0 65.8192608 7.41170537 64.7580106 7.41170537 55.7245852 12.0258735 33.2381899 28.6223099 14.8582366 38.2597759 9.3384982 69.7542509 0 79.5323317 0 109.965999 7.1563544 119.946659 23.2921526 127.842465 38.019347 140 49.0922673 132.847216 53.8394237 112.443653 49.0922673 86.4214185 38.019347 68.5559398 39.0368482 37.7487751"></polyline>
            <polyline id="Path-2" stroke="#FFFFFF" stroke-width="3" points="54 111.991565 63.4202255 118.888325 61.2098483 124.76395 81.6347438 153.873138 92.5071811 158 101.63001 153.873138 109.187089 146.274689 109.187089 139.382024 101.63001 139.382024 92.5071811 139.382024 85.6960044 131.307135 79.3285107 124.76395 79.3285107 115.367592 85.6960044 105.868848 101.63001 102 119.190854 102 127.209298 108.517247 130 118.888325 127.209298 127.629409 121.954227 134.40194 116.740973 138.416444 114.829684 139.382024"></polyline>
            <polyline id="Path-3" stroke="#FFFFFF" stroke-width="3" points="116.375564 139.056417 110 139.056417 113.75823 145.415457 131.062625 150 140.150122 147.274702 146.707891 142.284931 158.456889 111.408245 152.559614 106.371982 158.456889 101.61194 160.76374 88.4257627 169.649509 111.408245 187.442197 114.794015 207 84.488917 207 51.0141045 190.320067 39.1092142 182.304654 17.7799607 163.563522 11.6401769 158.456889 6"></polyline>
            <polyline id="Path-4" stroke="#FFFFFF" stroke-width="2" points="158 29 164 50.0100479 158 69.3789408 160.079654 88"></polyline>
            <polyline id="Path-7" stroke="#FFFFFF" stroke-width="3" points="93 157.770293 93 174.89436 95.4328173 181.164245 104.470369 190.349515 113.733819 194 127.566512 194 135.843859 190.349515 142 181.164245 142 170.229466 142 157.770293 137.823276 148"></polyline>
            <polyline id="Path-8" stroke="#FFFFFF" stroke-width="2" points="184.737954 114 187 130.035695 178.396025 145.295526 178.396025 158.656861 171.261043 155.871564 167.934897 164 153.725164 164 146.562574 158.656861 144.241969 158.656861 142 158.656861"></polyline>
            <polyline id="Path-9" stroke="#FFFFFF" stroke-width="2" points="25 131 25 140.176233 35.5821137 146.167322 30.2910569 158.385832 46.3062802 158.385832 49.5179787 171.097703 63.1542266 171.097703 72.9517847 177 76.7904746 171.097703 88.0159077 177 88.0159077 173.050448 93 171.097703"></polyline>
            <path d="M33.4218424,29.6072039 C32.6821611,28.5150715 32.9152277,28.8961919 34.1210422,30.7505652 C35.3268567,32.6049385 36.953176,35.0214168 39,38" id="Path-11" stroke="#FFFFFF" stroke-width="2"></path>
            <polygon id="Path-5" transform="translate(126.500000, 49.901101) scale(-1, 1) rotate(20.000000) translate(-126.500000, -49.901101) " points="134.404266 31 107.570175 31 97.0000001 55.727554 107.570175 68.8022023 149.361792 60.977554 156 46.0031835"></polygon>
        </g>
    </g>
</svg>